<?xml version="1.0" encoding="utf-8"?>
<!-- Generator: Adobe Illustrator 28.0.0, SVG Export Plug-In . SVG Version: 6.00 Build 0)  -->
<svg version="1.1" id="Layer_1" xmlns="http://www.w3.org/2000/svg" xmlns:xlink="http://www.w3.org/1999/xlink" x="0px" y="0px"
	 viewBox="0 0 612 792" style="enable-background:new 0 0 612 792;" xml:space="preserve">
<style type="text/css">
	.st0{fill:#010101;stroke:#010101;stroke-width:0.5;stroke-miterlimit:10;}
	.st1{fill:#FFFFFF;}
	.st2{fill:none;}
	.st3{fill:#FFFFFF;stroke:#FFFFFF;stroke-width:0.5;stroke-miterlimit:10;}
</style>
<rect x="121.89" y="290.54" class="st0" width="345.61" height="196.49"/>
<path class="st1" d="M305.1,377.73c-0.04,0.55-0.11,0.98-0.11,1.42c-0.01,8.41-0.02,16.82,0.02,25.22c0,1.01-0.27,1.33-1.3,1.31
	c-3.71-0.06-7.42-0.06-11.13,0c-1.04,0.01-1.3-0.32-1.29-1.33c0.05-8.55,0.04-17.1,0.05-25.65c0-0.27-0.04-0.54-0.07-0.88
	c-0.25,0.04-0.44,0.03-0.57,0.11c-2.8,1.71-5.58,3.44-8.39,5.13c-0.67,0.41-0.95,0.88-0.94,1.7c0.04,6.57,0.01,13.14,0.06,19.71
	c0.01,0.92-0.23,1.22-1.18,1.21c-3.67-0.05-7.35-0.05-11.02-0.01c-0.93,0.01-1.22-0.29-1.21-1.22c0.05-3.53,0.03-7.06,0.03-10.6
	c0-0.41,0-0.83,0-1.56c-7.91,4.76-15.57,9.38-23.24,13.99c-0.12-0.15-0.25-0.3-0.37-0.45c0.34-0.25,0.69-0.49,1.02-0.76
	c7.22-5.95,14.43-11.91,21.66-17.84c0.7-0.58,0.96-1.17,0.95-2.07c-0.03-9.57-0.01-19.15-0.06-28.72c0-1.04,0.33-1.64,1.22-2.21
	c3.72-2.37,7.37-4.84,11.05-7.27c0.28-0.19,0.58-0.36,1.15-0.71c0,10.32,0,20.39,0,30.78c2.43-1.89,4.45-3.74,6.74-5.15
	c2.64-1.62,3.29-3.7,3.23-6.72c-0.2-11.62-0.1-23.24-0.1-34.87c0-1.46,0.05-1.52,1.45-1.52c3.71,0.01,7.42,0.05,11.13,0.03
	c0.88-0.01,1.14,0.3,1.14,1.16c-0.03,12.65-0.02,25.29-0.06,37.94c0,0.99,0.28,1.62,1.07,2.21c2.7,2.04,5.35,4.15,8.01,6.24
	c0.16,0.12,0.34,0.23,0.71,0.48c0-10.21,0-20.23,0-30.5c0.57,0.25,0.93,0.35,1.23,0.54c3.87,2.53,7.74,5.06,11.56,7.65
	c0.4,0.27,0.72,0.97,0.73,1.47c0.03,9.54,0.04,19.08-0.04,28.61c-0.01,1.39,0.43,2.29,1.48,3.14c6.91,5.59,13.79,11.22,20.68,16.85
	c0.47,0.38,0.9,0.81,1.35,1.22c-0.08,0.12-0.17,0.24-0.25,0.35c-7.63-4.59-15.26-9.17-23.08-13.88c-0.06,0.58-0.14,0.97-0.14,1.36
	c-0.01,3.53-0.05,7.07,0.02,10.6c0.02,1.12-0.38,1.38-1.4,1.37c-3.6-0.04-7.21-0.05-10.81,0c-1.05,0.02-1.3-0.37-1.29-1.36
	c0.05-6.36,0.01-12.72,0.09-19.08c0.01-1.17-0.3-1.85-1.34-2.44c-2.65-1.51-5.23-3.17-7.84-4.76
	C305.55,377.95,305.39,377.88,305.1,377.73z"/>
<g>
	<rect x="224.27" y="421.65" class="st2" width="147.64" height="17.98"/>
	<path class="st3" d="M224.15,423.94v-2.29h10.61v2.29H224.15z M228.24,439.46v-16.35h2.41v16.35H228.24z"/>
	<path class="st3" d="M234.63,439.46l5.34-17.81h2.13l5.34,17.81h-2.6l-3.81-14.26l-3.81,14.26H234.63z M237.46,435.56v-2.28h7.32
		v2.28H237.46z"/>
	<path class="st3" d="M249.76,439.46v-17.81h2.41v17.81H249.76z M251.01,439.46v-2.29h8.17v2.29H251.01z"/>
	<path class="st3" d="M261.74,439.46v-17.81h2.41v17.81H261.74z M262.95,423.94v-2.29h8.33v2.29H262.95z M262.95,431.75v-2.28h7.35
		v2.28H262.95z M262.95,439.46v-2.29h8.33v2.29H262.95z"/>
	<path class="st3" d="M274.15,439.45v-17.79h2.14l6.8,13.7l-0.34,0.32v-14.02h2.35v17.79h-2.18l-6.76-13.39l0.33-0.32v13.7H274.15z"
		/>
	<path class="st3" d="M287.85,423.94v-2.29h10.61v2.29H287.85z M291.94,439.46v-16.35h2.41v16.35H291.94z"/>
	<path class="st3" d="M300.71,439.46v-17.81h2.4v17.81H300.71z M302.18,439.46v-2.25h3.87c0.93,0,1.6-0.19,2.02-0.58
		c0.42-0.39,0.62-0.9,0.62-1.55v-1.19c0-0.78-0.2-1.4-0.59-1.85c-0.4-0.45-1-0.67-1.81-0.67h-4.12v-2.23h4.12
		c0.71,0,1.25-0.19,1.62-0.58s0.55-0.94,0.55-1.67v-0.91c0-0.69-0.2-1.2-0.59-1.55c-0.4-0.35-0.97-0.53-1.73-0.53h-3.96v-2.25h4.16
		c1.5,0,2.63,0.37,3.4,1.12s1.14,1.77,1.14,3.07v0.96c0,0.87-0.23,1.62-0.69,2.25s-1.15,1.04-2.07,1.22
		c0.95,0.15,1.68,0.56,2.2,1.25s0.78,1.51,0.78,2.49v1.2c0,1.31-0.4,2.34-1.19,3.1s-1.9,1.15-3.31,1.15H302.18z"/>
	<path class="st3" d="M314.24,439.46v-17.82h2.41v17.82H314.24z M315.33,431.93v-2.29H320c0.68,0,1.21-0.21,1.6-0.64
		c0.39-0.42,0.59-1,0.59-1.73v-0.92c0-0.74-0.2-1.33-0.59-1.77c-0.39-0.44-0.93-0.65-1.6-0.65h-4.68v-2.29h4.52
		c1,0,1.86,0.19,2.58,0.56s1.29,0.9,1.68,1.59s0.59,1.5,0.59,2.45v1.04c0,0.96-0.2,1.78-0.59,2.48c-0.4,0.7-0.96,1.24-1.68,1.61
		c-0.72,0.38-1.58,0.56-2.58,0.56H315.33z M322.56,439.46l-3.28-8.08l2.34-0.56l3.7,8.65H322.56z"/>
	<path class="st3" d="M330.65,421.65v17.81h-2.41v-17.81H330.65z"/>
	<path class="st3" d="M334.24,439.46v-17.81h2.41v17.81H334.24z M335.82,439.46v-2.29h3.64c0.87,0,1.55-0.24,2.02-0.71
		c0.47-0.47,0.71-1.13,0.71-1.98v-7.86c0-0.85-0.24-1.51-0.71-1.98c-0.47-0.47-1.15-0.7-2.02-0.7h-3.64v-2.29h3.56
		c1.67,0,2.97,0.44,3.88,1.32c0.91,0.88,1.37,2.12,1.37,3.73v7.72c0,1.07-0.21,1.98-0.62,2.73c-0.41,0.75-1.01,1.33-1.79,1.72
		c-0.78,0.4-1.74,0.59-2.85,0.59H335.82z"/>
	<path class="st3" d="M352.72,429.87h5.25v4.16c0,1.15-0.21,2.15-0.64,2.99s-1.03,1.49-1.81,1.94c-0.78,0.45-1.71,0.68-2.8,0.68
		c-1.09,0-2.04-0.21-2.84-0.64c-0.8-0.43-1.42-1.04-1.84-1.83s-0.64-1.73-0.64-2.82v-7.27c0-1.16,0.21-2.16,0.64-3
		c0.42-0.84,1.03-1.48,1.82-1.93s1.72-0.68,2.8-0.68c1.03,0,1.91,0.2,2.66,0.61s1.33,1.01,1.76,1.8s0.69,1.76,0.76,2.89h-2.6
		c-0.08-0.97-0.35-1.71-0.81-2.2s-1.05-0.75-1.77-0.75c-0.87,0-1.55,0.29-2.05,0.88c-0.5,0.58-0.75,1.38-0.75,2.38v7.27
		c0,0.91,0.26,1.62,0.77,2.15s1.22,0.79,2.11,0.79c0.86,0,1.54-0.28,2.04-0.84c0.51-0.56,0.76-1.36,0.76-2.38v-1.91h-2.8V429.87z"/>
	<path class="st3" d="M361.15,439.46v-17.81h2.41v17.81H361.15z M362.36,423.94v-2.29h8.33v2.29H362.36z M362.36,431.75v-2.28h7.35
		v2.28H362.36z M362.36,439.46v-2.29h8.33v2.29H362.36z"/>
</g>
<g>
</g>
<g>
</g>
<g>
</g>
<g>
</g>
<g>
</g>
<g>
</g>
</svg>
